<?xml version="1.0" encoding="UTF-8" standalone="no"?>
<svg
   xmlns:dc="http://purl.org/dc/elements/1.1/"
   xmlns:cc="http://creativecommons.org/ns#"
   xmlns:rdf="http://www.w3.org/1999/02/22-rdf-syntax-ns#"
   xmlns:svg="http://www.w3.org/2000/svg"
   xmlns="http://www.w3.org/2000/svg"
   id="svg8"
   version="1.1"
   viewBox="0 0 12.7 12.7"
   height="48"
   width="48">
  <defs
     id="defs2" />
  <metadata
     id="metadata5">
    <rdf:RDF>
      <cc:Work
         rdf:about="">
        <dc:format>image/svg+xml</dc:format>
        <dc:type
           rdf:resource="http://purl.org/dc/dcmitype/StillImage" />
        <dc:title></dc:title>
      </cc:Work>
    </rdf:RDF>
  </metadata>
  <g
     transform="translate(0,-284.3)"
     id="layer1">
    <ellipse
       ry="0.43405393"
       rx="4.0536489"
       cy="287.13794"
       cx="6.2985439"
       id="path3720"
       style="fill:#00ffff;stroke:#000000;stroke-width:1.6055733;stroke-linecap:round;stroke-linejoin:round;stroke-miterlimit:4;stroke-dasharray:none;stroke-opacity:1" />
    <ellipse
       ry="0.43405393"
       rx="4.0536489"
       cy="290.70999"
       cx="6.3191085"
       id="path3720-4"
       style="fill:#000080;stroke:#000000;stroke-width:1.6055733;stroke-linecap:round;stroke-linejoin:round;stroke-miterlimit:4;stroke-dasharray:none;stroke-opacity:1" />
    <ellipse
       ry="0.43405393"
       rx="4.0536489"
       cy="294.35001"
       cx="6.3793793"
       id="path3720-8"
       style="fill:#000080;stroke:#000000;stroke-width:1.6055733;stroke-linecap:round;stroke-linejoin:round;stroke-miterlimit:4;stroke-dasharray:none;stroke-opacity:1" />
    <path
       transform="matrix(0.26458333,0,0,0.26458333,0,284.3)"
       id="path3743"
       d="M 18.724999,15.282186 C 15.216493,15.151366 11.936935,14.855805 10.001077,14.495966 8.5027585,14.217458 7.3918635,13.797441 6.7376124,13.262088 6.3332585,12.931219 5.8214278,12.199278 5.6464677,11.701704 5.4636291,11.181724 5.4673071,10.279359 5.6544363,9.7466435 6.0446135,8.6358947 6.9615545,7.8136445 8.3078007,7.3672869 13.341295,5.6983957 33.293449,5.6429393 39.022752,7.2819157 c 1.953015,0.5586973 3.070108,1.816485 3.074257,3.4614503 0.0017,0.682402 -0.163394,1.19011 -0.585727,1.801037 -0.395523,0.572143 -0.825527,0.924979 -1.541512,1.264874 -1.629001,0.773322 -5.344248,1.255872 -11.395784,1.480124 -1.92945,0.0715 -7.854301,0.06716 -9.848987,-0.0072 z"
       style="fill:#000080;stroke:#000000;stroke-width:0.47723743;stroke-linecap:round;stroke-linejoin:round;stroke-miterlimit:4;stroke-dasharray:none;stroke-opacity:1" />
    <path
       transform="matrix(0.26458333,0,0,0.26458333,0,284.3)"
       id="path3745"
       d="M 19.135373,28.794272 C 14.593008,28.633296 11.027495,28.269211 8.9975369,27.759069 7.5546617,27.396464 6.7504627,26.899774 6.1442828,25.996841 5.2788872,24.707795 5.4108421,23.205225 6.4945243,22.00864 c 0.5548491,-0.612655 1.3366312,-1.018079 2.5631044,-1.3292 2.9011833,-0.735946 9.3039473,-1.159002 16.2964963,-1.076776 4.511028,0.05305 7.801622,0.234753 10.535078,0.581748 3.526752,0.447699 4.902115,0.998487 5.748226,2.301978 0.419292,0.645947 0.533691,1.02697 0.53145,1.77008 -0.0022,0.723973 -0.13669,1.140977 -0.57561,1.784533 -0.971794,1.424867 -2.776344,1.995056 -7.715982,2.43804 -3.846232,0.344928 -10.118998,0.47906 -14.741914,0.315229 z"
       style="fill:#000080;stroke:#000000;stroke-width:0.47723743;stroke-linecap:round;stroke-linejoin:round;stroke-miterlimit:4;stroke-dasharray:none;stroke-opacity:1" />
    <path
       transform="matrix(0.26458333,0,0,0.26458333,0,284.3)"
       id="path3747"
       d="M 19.577315,42.562701 C 15.662081,42.414705 12.594564,42.155253 10.580644,41.801758 8.1938837,41.382819 7.1348162,40.874575 6.4022879,39.796572 5.9512636,39.132835 5.8325271,38.7555 5.8325271,37.985918 c 0,-0.769582 0.1187365,-1.146917 0.5697608,-1.810654 0.7652885,-1.126213 1.924058,-1.654858 4.5255961,-2.064632 3.501141,-0.551473 8.58946,-0.809908 14.647212,-0.74393 5.063631,0.05515 8.481477,0.259928 11.301081,0.677096 2.925383,0.432819 4.164443,0.965942 4.946623,2.128357 0.440793,0.655072 0.58751,1.118962 0.583634,1.84533 -0.0072,1.35441 -0.906717,2.564879 -2.347401,3.158969 -1.5371,0.63385 -4.763578,1.067602 -9.875116,1.327562 -1.716073,0.08727 -8.811642,0.126534 -10.606602,0.05868 z"
       style="fill:#000080;stroke:#000000;stroke-width:0.47723743;stroke-linecap:round;stroke-linejoin:round;stroke-miterlimit:4;stroke-dasharray:none;stroke-opacity:1" />
  </g>
</svg>
